<?xml version="1.0" standalone="no"?>
<!DOCTYPE svg PUBLIC "-//W3C//DTD SVG 20010904//EN"
 "http://www.w3.org/TR/2001/REC-SVG-20010904/DTD/svg10.dtd">
<svg version="1.0" xmlns="http://www.w3.org/2000/svg"
 width="300.000000pt" height="300.000000pt" viewBox="0 0 300.000000 300.000000"
 preserveAspectRatio="xMidYMid meet">
<metadata>
Created by potrace 1.11, written by Peter Selinger 2001-2013
</metadata>
<g transform="translate(0.000000,300.000000) scale(0.100000,-0.100000)"
fill="#000000" stroke="none">
<path d="M0 1500 l0 -1500 1500 0 1500 0 0 1500 0 1500 -1500 0 -1500 0 0
-1500z m2250 1000 c0 -5 7 -7 15 -4 8 4 21 1 29 -5 7 -6 16 -8 19 -4 4 3 7 1
7 -6 0 -8 -9 -9 -27 -4 -16 5 -63 7 -105 6 -48 -1 -78 3 -78 9 0 6 11 8 25 6
14 -3 25 -1 25 3 0 5 20 9 45 9 25 0 45 -4 45 -10z m149 -87 c14 -12 21 -22
16 -23 -18 0 -77 59 -69 71 4 8 10 5 17 -7 5 -11 22 -29 36 -41z m-368 21
c-17 -7 -31 -19 -31 -25 0 -7 -2 -10 -5 -7 -10 10 8 40 29 48 34 13 41 -2 7
-16z m-51 -28 c0 -3 -11 -17 -25 -32 -28 -30 -34 -21 -9 14 13 19 34 30 34 18z
m466 -93 c9 -50 -3 -52 -16 -3 -6 23 -13 49 -16 58 -5 14 -3 13 10 -2 9 -11
19 -35 22 -53z m-536 30 c0 -5 -23 -27 -50 -51 -28 -24 -50 -39 -50 -33 0 6 9
15 19 21 11 5 28 24 38 40 16 27 43 41 43 23z m556 -129 c-3 -8 -10 -14 -16
-14 -11 0 -14 43 -3 54 10 10 26 -23 19 -40z m-681 6 c-3 -5 -11 -10 -16 -10
-6 0 -7 5 -4 10 3 6 11 10 16 10 6 0 7 -4 4 -10z m662 -67 c-4 -20 -12 -40
-19 -44 -18 -11 -21 -4 -9 19 6 12 11 30 11 41 0 12 5 21 11 21 8 0 10 -13 6
-37z m-713 12 c-10 -8 -23 -14 -29 -14 -5 0 -1 6 9 14 11 8 24 15 30 15 5 0 1
-7 -10 -15z m-64 -64 c-20 -29 -40 -41 -40 -24 0 10 53 64 58 58 2 -2 -6 -18
-18 -34z m740 -21 c0 -6 -8 -13 -17 -17 -10 -3 -30 -20 -45 -37 -20 -23 -30
-28 -39 -19 -8 8 -6 13 8 17 11 3 32 20 48 36 30 31 45 38 45 20z m-780 -24
c0 -9 -52 -58 -57 -53 -3 3 6 17 20 31 24 24 37 32 37 22z m-74 -92 c-9 -9
-20 -13 -24 -9 -4 3 2 13 12 21 25 18 33 10 12 -12z m734 18 c0 -12 -52 -58
-74 -66 -13 -4 -5 8 20 33 38 39 54 49 54 33z m-760 -54 c-6 -7 -21 -26 -35
-43 -13 -16 -27 -26 -31 -22 -4 4 1 14 12 22 10 8 15 15 10 15 -10 0 36 39 47
40 4 0 3 -6 -3 -12z m646 -46 c-17 -16 -18 -16 -5 5 7 12 15 20 18 17 3 -2 -3
-12 -13 -22z m-34 -29 c-6 -3 -9 -10 -6 -15 4 -7 2 -8 -5 -4 -9 6 -9 11 0 22
6 8 15 12 18 8 3 -4 0 -9 -7 -11z m-685 -27 c0 -8 -6 -12 -14 -9 -7 3 -10 9
-7 14 8 14 21 11 21 -5z m658 -6 c-3 -5 -12 -10 -18 -10 -7 0 -6 4 3 10 19 12
23 12 15 0z m-675 -20 c0 -5 -8 -10 -17 -10 -15 0 -16 2 -3 10 19 12 20 12 20
0z m650 -16 c0 -12 -72 -75 -79 -68 -3 4 0 9 7 11 6 3 10 9 6 14 -3 5 1 9 8 9
7 0 19 9 26 20 11 19 32 28 32 14z m-675 -24 c-3 -5 -10 -10 -16 -10 -5 0 -9
5 -9 10 0 6 7 10 16 10 8 0 12 -4 9 -10z m-27 -42 c-8 -12 -20 -24 -27 -26 -9
-3 -7 5 4 22 10 14 22 26 27 26 6 0 4 -10 -4 -22z m-593 2 c-3 -5 -13 -10 -21
-10 -8 0 -14 5 -14 10 0 6 9 10 21 10 11 0 17 -4 14 -10z m149 0 c39 -14 33
-31 -6 -18 -18 6 -37 15 -42 19 -13 12 16 11 48 -1z m-194 -9 c0 -5 -13 -14
-30 -20 -32 -11 -41 2 -12 18 21 13 42 14 42 2z m288 -57 c2 -1 -1 -5 -7 -8
-5 -4 -19 4 -30 16 -31 32 -25 45 7 17 15 -13 28 -25 30 -25z m936 -9 c-20
-25 -40 -45 -45 -45 -5 0 -9 -7 -9 -15 0 -9 -7 -18 -15 -21 -8 -4 -13 -10 -10
-14 3 -4 -2 -13 -10 -20 -8 -7 -15 -18 -15 -25 0 -7 -10 -23 -22 -37 -13 -14
-24 -32 -26 -39 -5 -19 -20 -34 -28 -26 -6 6 34 69 48 75 5 2 6 8 3 12 -5 9
10 32 48 72 9 10 17 22 17 27 0 5 12 19 26 32 14 13 29 34 34 47 5 12 17 22
25 22 12 0 6 -13 -21 -45z m-1310 10 c-20 -30 -50 -36 -34 -6 9 18 24 28 43
30 4 1 0 -10 -9 -24z m673 -15 c-48 -88 -56 -106 -57 -124 0 -15 -3 -17 -11
-9 -14 14 6 79 27 87 8 3 12 10 9 16 -3 5 -1 10 4 10 6 0 11 6 11 14 0 13 25
46 36 46 2 0 -6 -18 -19 -40z m-287 -20 c0 -5 -2 -10 -4 -10 -3 0 -8 5 -11 10
-3 6 -1 10 4 10 6 0 11 -4 11 -10z m-436 -25 c3 -8 1 -15 -4 -15 -5 0 -13 -18
-16 -40 -8 -49 -19 -59 -22 -19 -1 16 3 29 9 29 6 0 9 7 6 15 -4 8 -2 17 4 20
5 4 7 11 4 16 -4 5 -2 9 3 9 6 0 12 -7 16 -15z m483 -24 c-1 -3 10 -18 23 -32
25 -26 49 -56 75 -94 13 -20 14 -20 24 5 5 14 10 23 11 20 8 -27 6 -41 -6 -50
-17 -15 -33 -5 -44 26 -5 13 -16 24 -25 24 -8 0 -15 5 -15 11 0 12 -59 92 -72
97 -5 2 -8 11 -8 19 0 14 3 14 20 -2 10 -9 18 -20 17 -24z m163 -75 c0 -17
-14 -29 -23 -20 -8 8 3 34 14 34 5 0 9 -6 9 -14z m-670 -56 c0 -11 -1 -22 -2
-23 -2 -2 3 -11 11 -20 7 -10 10 -17 7 -17 -4 0 -2 -9 4 -20 6 -11 7 -20 1
-20 -9 0 -23 25 -26 45 -1 6 -4 17 -8 25 -8 21 -5 50 5 50 4 0 8 -9 8 -20z
m1169 -125 c-18 -30 -35 -52 -37 -50 -3 3 0 11 7 19 6 8 10 18 9 22 -2 5 8 27
21 48 14 22 27 34 29 27 2 -6 -11 -36 -29 -66z m-1124 5 c3 -5 2 -10 -4 -10
-5 0 -13 5 -16 10 -3 6 -2 10 4 10 5 0 13 -4 16 -10z m19 -26 c9 -3 16 -12 16
-20 0 -20 -13 -17 -28 6 -13 22 -12 23 12 14z m1059 -61 c-3 -10 -16 -40 -28
-68 -12 -27 -28 -63 -35 -80 -11 -24 -14 -26 -18 -12 -2 10 8 40 23 68 14 27
23 55 19 61 -4 6 -3 8 3 5 6 -4 14 4 17 18 4 14 11 25 16 25 5 0 7 -8 3 -17z
m-991 -25 c-12 -12 -35 -1 -27 12 3 5 13 6 21 3 10 -4 12 -9 6 -15z m56 -73
c17 -25 28 -45 23 -45 -8 0 -71 74 -71 84 0 17 20 1 48 -39z m62 -85 c12 -16
18 -30 13 -30 -11 0 -40 20 -29 20 5 0 1 9 -9 20 -10 11 -13 20 -7 20 6 0 20
-13 32 -30z m795 -10 c3 -5 2 -10 -4 -10 -5 0 -13 5 -16 10 -3 6 -2 10 4 10 5
0 13 -4 16 -10z m-742 -72 c8 -29 -11 -21 -28 12 -15 30 -15 30 4 18 11 -6 22
-20 24 -30z m713 5 c-10 -10 -19 5 -10 18 6 11 8 11 12 0 2 -7 1 -15 -2 -18z
m-6 -22 c0 -6 -4 -12 -10 -16 -5 -3 -7 -12 -3 -20 3 -8 0 -15 -6 -15 -9 0 -10
32 -2 58 3 7 21 1 21 -7z m-673 -17 c-3 -4 0 -16 8 -28 19 -27 19 -42 0 -26
-8 7 -13 16 -10 20 3 4 -2 10 -10 14 -20 7 -19 26 2 26 9 0 13 -3 10 -6z m648
-82 c-8 -9 -25 20 -18 31 3 5 10 2 15 -7 6 -10 7 -20 3 -24z m-597 -9 c-1 -5
6 -21 16 -36 10 -15 16 -30 12 -34 -8 -8 -17 1 -20 22 -1 9 -8 20 -15 25 -8 4
-10 13 -7 19 8 12 17 15 14 4z m576 -41 c-4 -17 -10 -29 -15 -26 -5 3 -5 12 0
22 4 9 7 25 5 36 -1 12 1 15 7 9 5 -5 6 -24 3 -41z m-14 -59 c0 -19 -31 -75
-47 -86 -7 -4 -13 -14 -13 -21 0 -7 -11 -18 -25 -24 -14 -6 -25 -16 -25 -22 0
-5 -3 -9 -7 -8 -5 1 -19 -4 -32 -11 -17 -9 -26 -10 -34 -2 -8 8 -6 11 6 11 26
0 129 79 121 92 -4 6 -3 8 3 5 12 -7 33 42 33 75 0 11 5 16 10 13 6 -3 10 -13
10 -22z m-520 7 c0 -5 -2 -10 -4 -10 -3 0 -8 5 -11 10 -3 6 -1 10 4 10 6 0 11
-4 11 -10z m26 -36 c-3 -8 -1 -14 4 -14 5 0 12 -11 16 -25 5 -22 24 -41 78
-78 16 -12 16 -14 2 -14 -9 0 -16 3 -16 7 0 4 -10 11 -23 17 -12 6 -29 23 -37
39 -15 29 -25 44 -47 69 -10 11 -10 14 0 18 18 6 29 -3 23 -19z m144 -144 c0
-5 -5 -10 -11 -10 -5 0 -7 5 -4 10 3 6 8 10 11 10 2 0 4 -4 4 -10z m145 -10
c4 -6 -18 -10 -59 -10 -37 0 -66 4 -66 10 0 6 26 10 59 10 33 0 63 -4 66 -10z"/>
</g>
</svg>
